<svg xmlns="http://www.w3.org/2000/svg" viewBox="0 0 2 2" xml:space="preserve" width="2vw"
    height="2vw"><path style="fill:#db380e" d="M.99.371C.898.436.793.51.737.632c-.097.213.199.445.212.454a.02.02 0 0 0 .021 0 .02.02 0 0 0 .004-.02C.973 1.064.866.857.87.708c.001-.052.074-.11.15-.173.07-.057.15-.121.196-.197.102-.166-.011-.329-.013-.331a.02.02 0 0 0-.02-.006.02.02 0 0 0-.009.018c0 .001.022.109-.039.22-.025.046-.081.085-.145.13"/><path style="fill:#db380e" d="M1.379.444a.016.016 0 0 0-.016-.028C1.347.422.979.564.979.736c0 .118.051.181.087.227q.023.027.031.047c.012.038-.016.107-.027.13a.016.016 0 0 0 .024.021c.006-.004.155-.109.128-.236-.01-.048-.034-.083-.054-.114-.032-.048-.056-.083-.02-.147.041-.075.229-.217.231-.218"/><path style="fill:#73a1fb" d="M.42 1.165a.06.06 0 0 0 .009.054c.04.055.182.086.399.086l.092-.002c.347-.012.476-.121.481-.125a.016.016 0 0 0-.015-.028 2.4 2.4 0 0 1-.509.045 1.2 1.2 0 0 1-.29-.022c.011-.016.081-.043.168-.06a.016.016 0 0 0-.003-.032c-.051 0-.305.004-.332.085m1.162-.111c-.072 0-.14.036-.142.037a.016.016 0 0 0 .008.031c.002 0 .153.001.166.088.012.075-.143.195-.204.236a.016.016 0 0 0 .012.03c.014-.003.353-.078.317-.275-.022-.121-.098-.146-.158-.146m-.232.367a.02.02 0 0 0-.007-.016l-.081-.057a.02.02 0 0 0-.014-.002c-.001 0-.086.023-.209.036a2 2 0 0 1-.159.008.6.6 0 0 1-.216-.025q-.002-.004-.001-.005c.002-.006.014-.013.021-.016a.016.016 0 0 0-.01-.031q-.122.03-.118.082c.005.061.147.093.267.101l.055.002c.2 0 .455-.063.458-.063a.02.02 0 0 0 .012-.013m-.612.132a.02.02 0 0 0 .007-.019.02.02 0 0 0-.016-.012c-.011 0-.107.005-.114.066a.06.06 0 0 0 .016.05q.05.061.284.074l.056.002a.85.85 0 0 0 .339-.065.016.016 0 0 0 .002-.029l-.103-.063-.012-.002c-.001 0-.066.014-.164.027a.8.8 0 0 1-.297-.023q0-.003.003-.007"/><path style="fill:#73a1fb" d="M.877 1.902c.456 0 .701-.082.749-.133.017-.018.019-.035.017-.046-.004-.028-.029-.044-.031-.046q-.012-.006-.021.003a.02.02 0 0 0 0 .021c.003.004.005.01-.004.018-.019.018-.209.071-.526.087l-.135.003c-.284 0-.491-.039-.519-.062.011-.015.084-.039.162-.053a.016.016 0 0 0-.005-.032l-.018.001c-.129.008-.278.025-.286.092a.07.07 0 0 0 .018.055c.035.039.135.091.6.091z"/><path style="fill:#73a1fb" d="M1.715 1.784a.02.02 0 0 0-.019.004c-.001.001-.069.072-.276.115a3 3 0 0 1-.441.024 9 9 0 0 1-.419-.009q-.015.001-.017.014a.016.016 0 0 0 .012.018c.002.001.215.05.507.05q.211 0 .404-.034c.24-.042.256-.161.257-.166a.02.02 0 0 0-.009-.017"/></svg>