<svg xmlns="http://www.w3.org/2000/svg" viewBox="0 0 2 2" xml:space="preserve" width="2vw"
    height="2vw"><path style="fill:#ee8700" d="M1 0v.162h.838v1.677H1v.162h1V0z"/>
    <path style="fill:#ff9811" d="M.162 1.838V.162H1V0H0v2h1v-.162z"/>
    <path style="fill:#ff9811" d="M.968 1.034S.898.9.901.802c.002-.07.16-.139.222-.24S1.115.364 1.115.364s.015.072-.026.147S.896.63.836.759c-.059.129.132.276.132.276"/>
    <path style="fill:#ff9811" d="M1.229.627S.992.717.992.82s.064.137.075.17-.018.09-.018.09.093-.065.077-.139C1.111.866 1.038.843 1.08.768a.8.8 0 0 1 .15-.142"/>
    <path style="fill:#ff9811" d="M.943 1.17c.219-.008.299-.077.299-.077-.142.039-.518.036-.521.008s.116-.052.116-.052-.186 0-.201.047c-.015.046.088.082.307.074m.317.109s.215-.046.193-.163c-.026-.142-.175-.062-.175-.062s.106 0 .116.064-.134.16-.134.16m-.106-.062s-.054.014-.134.023c-.107.012-.237.003-.248-.015-.01-.018.018-.029.018-.029-.129.031-.058.085.093.096.13.009.323-.039.323-.039zm-.333.113s-.059.002-.062.032c-.003.031.036.059.181.067.144.009.246-.039.246-.039l-.065-.04s-.041.009-.105.017a.5.5 0 0 1-.199-.019.02.02 0 0 1 .005-.019"/>
    <path style="fill:#ff9811" d="M.916 1.55c.309 0 .445-.057.468-.081.022-.024-.007-.043-.007-.043s.01.012-.003.026-.139.048-.341.058c-.201.01-.419-.019-.426-.044-.007-.026.112-.047.112-.047-.014.002-.179.005-.184.05s.072.081.382.081"/>
    <path style="fill:#ff9811" d="M1.263 1.571c-.136.027-.548.01-.548.01s.268.064.574.01c.146-.026.155-.096.155-.096s-.045.048-.181.076"/>
</svg>