<svg width="1vw" height="1vw" viewBox="0 0 0.04 0.04" xmlns="http://www.w3.org/2000/svg">
    <path
        d="M.013.023q0 .003.003.008h.002L.02.03.017.028.015.025Q.017.028.021.03.025.031.028.028L.03.026.033.015.032.011Q.031.009.028.01V.009L.03.007.028.005H.02a.01.01 0 0 0-.007.007v.003l.001.003-.002.001V.018L.01.017.011.02.01.019.009.021V.018H.008v.004L.01.023.012.022zm.008.002V.023h.001zm.007.002H.024L.022.025V.024q.002.003.007.002zm0-.002V.024L.032.023zm.003-.01H.029L.03.014V.013zq-.002.002-.003 0zM.025.021.026.02l.001.001-.001.001.001.001.004-.001Q.032.021.03.02L.027.015l.001.001.003.004.001.001v.002L.026.025V.023Zm.002.003.001.001Q.024.025.022.023zM.022.013l.001.002.001.001-.001.001L.02.016h.003V.015zh.001V.012ZM.018.009h.003V.01L.017.012z"
        style="fill:#f0d6b7" />
    <path d="M.008.037h.011L.018.035.014.033.007.036l.001.002" style="fill:#335061" />
    <path d="M.012.009h.002L.016.007.017.006zM.009.016l.004.002V.01Q.006.012.009.016"
        style="fill:#6d6b6d" />
    <path d="M.017.005Q.013.006.011.009h.001L.016.006zM.009.011.008.016Q.007.013.012.01V.009z"
        style="fill:#dcd9d8" />
    <path
        d="M.013.023.012.022.011.024v.001l.002.004.003.001Q.012.025.013.022M.027.02H.025zM.03.013h.002V.012L.031.013m-.01 0 .002.001zH.02M.008.017.01.018.009.015.006.017l.003.005zM.021.005h.008-.001Q.024.003.019.004L.013.009v.003A.01.01 0 0 1 .02.005m.008.004V.01L.03.009zL.027.01M.016.013"
        style="fill:#f7e4cd" />
    <path d="M.018.012V.011L.021.009h.001-.003Q.016.011.018.012" style="fill:#f7e4cd" />
    <path d="M.007.034.014.031.012.029.005.033l.001.003h.001L.006.034" style="fill:#49728b" />
    <path d="M.034.037.035.034V.033L.031.03v.005l.001.001h.002M.03.029h.001" style="fill:#335061" />
    <path d="M.035.032.034.03.032.028.031.029.032.03l.004.003V.032" style="fill:#49728b" />
    <path d="M.026.036h.003L.027.035z" style="fill:#fff" />
    <path d="M.026.036.027.035l.002.001V.035L.027.034H.026l.001.001h.001" style="fill:#dcd9d8" />
    <path d="M.018.031.015.03v.001l.003.001z" style="fill:#fff" />
    <path d="M.018.033.015.032z" style="fill:#dcd9d8" />
    <path
        d="M.031.035V.032H.03L.029.033v.001H.028v.001zm-.007 0V.034H.023V.033H.021L.019.034v.004L.021.037.023.035M.024.034A.001.001 0 1 0 .025.032L.024.033"
        style="fill:#d33833" />
    <path
        d="M.027.034h.001V.033L.029.032H.03V.031L.027.032v.001h.001-.001zV.033m-.008 0q0-.002.002-.001h.002v.001h.001-.001.001-.001L.02.032.019.035.02.037V.034M.026.033v.001z"
        style="fill:#ef3d3a" />
    <path
        d="M.018.011v.001Q.019.01.022.01V.009H.021zm.013.004q.002.002.003 0L.033.012v.003zm-.007 0H.021l.003.001.001-.001zL.023.012v.001zv.001m.002.007L.032.021V.019L.031.018.028.014.027.013q0 .003.003.005L.031.02.027.021.026.02v.002M.009.018v.001H.01v.003L.011.02l.001.001L.011.018zm.019.006v.001L.033.022zm0 .001V.024L.023.023q.002.003.006.002M.023.024v.001l.002.002h.004L.03.026Q.025.026.023.024"
        style="fill:#231f20" />
    <path d="M.031.037.03.036H.029v.001Z" style="fill:#81b0c4" />
    <path d="M.027.031.024.032h.002L.028.031" style="fill:#f0d6b7" />
    <path d="M.024.036h.001" style="fill:#81b0c4" />
    <path
        d="M.006.037.005.034.012.03l.002.002.004.002.001.002v.001h.004L.022.036h.001l.002.001v.001h.001V.037h.001l.001.001h.001L.028.037V.032L.027.031H.026L.027.03l.002.002.001.002v.002l.004.001.001-.003.001-.003L.034.029.032.027.033.025.034.023V.009L.03.005Q.025.002.018.004L.015.005Q.011.006.01.01.008.012.008.015v.003l.001.006h.002l.001.002.001.002-.002.001-.004.002-.002.002zh.001Zm.01-.032L.015.006.013.008H.012v.001H.011Q.013.006.017.005zM.013.01v.008L.009.016.01.011.014.009V.01ZM.009.022.008.019.011.017l.002.002V.02L.015.019.014.016V.01L.02.005l.009.001H.03l.002.002.001.001L.031.01Q.033.009.035.011l.001.004-.003.011-.002.002L.024.03Q.02.028.018.025L.02.028.023.03.021.031H.019L.016.03.014.026V.025L.015.023.013.024.011.023m.016.012V.034h.001a.001.001 0 1 1-.001.002ZM.017.032.02.033v.001L.017.033zm.009.001H.024zL.028.032zM.024.038.022.039.021.037.022.034l.003.001h.001-.001.001v.001zM.029.036V.034L.032.033v.004H.029Z"
        style="fill:#231f20" />
    <path d="M.022.024v.002z" style="fill:#f7e4cd" />
    <path d="M.027.036h.001" style="fill:#1d1919" />
    <path d="M.02.037H.006zm.014 0H.022zm-.028 0h.013zm.017 0h.011z" style="fill:#231f20" />
</svg>