<svg width="2vw" height="2vw" viewBox="0 -0.543 2 2" xmlns="http://www.w3.org/2000/svg"
    preserveAspectRatio="xMidYMid">
    <path
        d="M.194.082a.06.06 0 0 0-.04-.016.05.05 0 0 0-.039.016.06.06 0 0 0-.016.04q0 .024.016.04.016.015.039.016.024 0 .04-.016A.06.06 0 0 0 .21.122a.06.06 0 0 0-.016-.04m-.04.766q.024 0 .04-.016A.06.06 0 0 0 .21.793a.06.06 0 0 0-.016-.04.06.06 0 0 0-.04-.016.05.05 0 0 0-.039.016.06.06 0 0 0-.016.04q0 .023.016.039a.06.06 0 0 0 .039.016m.305-.17A.06.06 0 0 0 .493.652L.494.65A.05.05 0 0 0 .498.609.06.06 0 0 0 .472.575L.471.574A.06.06 0 0 0 .429.569a.06.06 0 0 0-.034.026.06.06 0 0 0-.006.043.06.06 0 0 0 .026.034.05.05 0 0 0 .043.005M.212.399a.08.08 0 0 0-.114 0 .08.08 0 0 0-.024.057.08.08 0 0 0 .024.058.08.08 0 0 0 .114 0A.08.08 0 0 0 .236.456.08.08 0 0 0 .212.399M.18.304a.15.15 0 0 1 .084.043l.01.011L.33.326A.12.12 0 0 1 .328.257.12.12 0 0 1 .384.184L.385.183A.12.12 0 0 1 .476.171a.12.12 0 0 1 .073.056q.025.046.012.091a.12.12 0 0 1-.056.073L.497.396H.496A.12.12 0 0 1 .355.368L.299.4a.2.2 0 0 1 .01.055.2.2 0 0 1-.01.055l.056.032A.12.12 0 0 1 .413.506a.12.12 0 0 1 .092.012l.002.001a.12.12 0 0 1 .054.072.12.12 0 0 1-.012.091L.548.684a.12.12 0 0 1-.164.043.12.12 0 0 1-.056-.073A.1.1 0 0 1 .33.585L.274.553l-.01.011A.15.15 0 0 1 .18.607v.065a.1.1 0 0 1 .06.033.12.12 0 0 1 .035.085.12.12 0 0 1-.12.12.12.12 0 0 1-.12-.12A.12.12 0 0 1 .07.705.12.12 0 0 1 .13.672V.607A.15.15 0 0 1 .046.564.14.14 0 0 1 0 .457Q.002.391.045.348A.15.15 0 0 1 .129.305V.24a.12.12 0 0 1-.06-.033.12.12 0 0 1-.035-.085Q.036.072.069.037A.12.12 0 0 1 .155.001q.05.002.085.035a.12.12 0 0 1 .035.085.12.12 0 0 1-.035.085.12.12 0 0 1-.06.033zM.494.261A.05.05 0 0 0 .46.235a.06.06 0 0 0-.043.006.06.06 0 0 0-.026.034.06.06 0 0 0 .006.043.06.06 0 0 0 .034.026.06.06 0 0 0 .042-.005h.001A.06.06 0 0 0 .499.305.06.06 0 0 0 .494.262m.248.019h.062v.19l.09-.099h.075L.86.487l.109.146H.898L.804.503v.13H.742zm.299.223c0 .032.023.08.079.08a.07.07 0 0 0 .069-.042.1.1 0 0 0 .01-.037.1.1 0 0 0-.007-.037.08.08 0 0 0-.073-.046c-.05 0-.079.041-.079.081zm.221.13H1.2V.596c-.017.03-.051.046-.088.046C1.028.642.979.577.979.503c0-.082.059-.138.133-.138.048 0 .077.025.088.046V.373h.062zm.071-.213h-.032v-.05h.032V.356c0-.078.059-.082.104-.083v.048c-.016 0-.041 0-.041.037v.013h.041v.048h-.041v.213h-.062zm.146-.139h.062v.19l.09-.099h.075l-.109.115.109.146h-.071l-.094-.13v.13h-.062zm.299.223c0 .032.023.08.079.08a.07.07 0 0 0 .069-.042.1.1 0 0 0 .01-.037.1.1 0 0 0-.007-.037.08.08 0 0 0-.073-.046c-.05 0-.079.041-.079.081zm.221.13h-.062V.597c-.017.03-.051.046-.088.046-.084 0-.133-.065-.133-.139 0-.082.059-.138.133-.138.048 0 .077.025.088.046V.374h.062z"
        fill="#1A1919" />
</svg>