<svg xmlns="http://www.w3.org/2000/svg" width="2vw" height="2vw" viewBox="0 0 434.325 434.325"
    xml:space="preserve"><path d="m432.91 99.805-1.076-.847c-1.205-.59-119.59-60.243-213.456-86.608l-1.025-.308-1.023.333c-6.54 1.976-161.138 49.627-214.791 92.431L0 106.012l16.029 187.271 1.462.976c1.462.998 149.211 99.432 195.887 125.771l1.719.95 1.744-.872c.129-.078.385-.205.563-.31v2.486c37.007-15.08 78.708-40.266 114.792-64.501 45.088-25.826 87.02-52.319 91.711-63.987l.23-1.076c9.287-124.029 12.261-188.967 8.773-192.915M217.404 206.672V411.64c-.719.359-1.437.743-2.129 1.104-45.652-26.058-176.987-113.357-192.323-123.541L7.563 109.267c51.755-39.906 196.299-85.428 209.865-89.66 82.556 23.365 183.886 72.375 206.48 83.505-96.404 23.826-206.504 103.56-206.504 103.56"/>
    <path d="M186.68 199.39 25.415 121.476C58.933 164.075 186.68 199.39 186.68 199.39"/>
</svg>