<svg width="1vw" height="1vw" viewBox="0 0 73 73" xmlns="http://www.w3.org/2000/svg">
    <defs>
        <linearGradient x1="72.724%" y1="9.24%" x2="27.269%" y2="90.753%" id="a">
            <stop stop-color="#3E863D" offset="30%" />
            <stop stop-color="#55934F" offset="50%" />
            <stop stop-color="#5AAD45" offset="80%" />
        </linearGradient>
        <linearGradient x1="3.994%" y1="80.099%" x2="97.307%" y2="20.906%" id="b">
            <stop stop-color="#3E863D" offset="57%" />
            <stop stop-color="#619857" offset="72%" />
            <stop stop-color="#76AC64" offset="100%" />
        </linearGradient>
        <linearGradient x1="0%" y1="50%" x2="100%" y2="50%" id="c">
            <stop stop-color="#6BBF47" offset="16%" />
            <stop stop-color="#79B461" offset="38%" />
            <stop stop-color="#75AC64" offset="47%" />
            <stop stop-color="#659E5A" offset="70%" />
            <stop stop-color="#3E863D" offset="90%" />
        </linearGradient>
    </defs>
    <g transform="translate(2 2)" fill="none" fill-rule="evenodd">
        <rect stroke="#000" stroke-width="2" fill="#FFF" fill-rule="nonzero" x="-1" y="-1"
            width="71" height="71" rx="14" />
        <path
            d="M61.815 30.905h.17c.139 0 .165-.097.165-.154 0-.15-.102-.15-.159-.15h-.174zm-.206-.478h.376c.129 0 .382 0 .382.288 0 .201-.13.243-.207.268.15.01.161.11.181.248.01.087.027.238.057.288h-.231c-.007-.05-.042-.328-.042-.343-.015-.062-.037-.093-.114-.093h-.19v.438h-.212zm-.451.544c0 .452.365.819.814.819a.816.816 0 1 0-.815-.82zm1.789.002a.976.976 0 0 1-.974.974.975.975 0 0 1-.973-.974.973.973 0 1 1 1.945 0z"
            fill="#689F63" fill-rule="nonzero" />
        <path
            d="M19 34.447a.65.65 0 0 0-.322-.562l-5.355-3.081a.6.6 0 0 0-.294-.085h-.055a.64.64 0 0 0-.296.085l-5.354 3.08a.65.65 0 0 0-.324.563l.012 8.298c0 .115.06.222.16.28.099.06.223.06.321 0l3.183-1.825a.65.65 0 0 0 .324-.56v-3.876c0-.232.123-.445.323-.56l1.355-.78a.64.64 0 0 1 .645-.001l1.355.78c.2.115.323.329.323.56v3.876c0 .23.125.443.325.562l3.18 1.821c.1.06.225.06.324 0a.33.33 0 0 0 .16-.28zm25.266 4.32a.16.16 0 0 1-.08.14l-1.84 1.06a.16.16 0 0 1-.16 0l-1.84-1.06a.16.16 0 0 1-.081-.14v-2.123a.16.16 0 0 1 .08-.14l1.838-1.063a.16.16 0 0 1 .163 0l1.839 1.062c.05.03.08.083.08.14zm.497-15.727a.325.325 0 0 0-.48.283v8.217a.226.226 0 0 1-.34.196l-1.341-.772a.65.65 0 0 0-.647 0L36.6 34.055a.65.65 0 0 0-.323.559v6.184c0 .231.123.443.323.56l5.356 3.093a.65.65 0 0 0 .647 0l5.356-3.095a.65.65 0 0 0 .324-.56V25.384a.65.65 0 0 0-.333-.565zM62.6 36.588a.65.65 0 0 0 .321-.56V34.53a.65.65 0 0 0-.322-.56l-5.322-3.089a.65.65 0 0 0-.648 0l-5.355 3.09a.65.65 0 0 0-.323.56v6.182c0 .233.125.448.326.563l5.32 3.032a.65.65 0 0 0 .635.004l3.218-1.788a.324.324 0 0 0 .003-.563l-5.388-3.092a.32.32 0 0 1-.163-.28V36.65a.32.32 0 0 1 .162-.28l1.676-.967a.32.32 0 0 1 .323 0l1.677.967c.1.057.162.165.162.28v1.524a.323.323 0 0 0 .485.28z"
            fill="#333" />
        <path
            d="M56.874 36.298a.12.12 0 0 1 .124 0l1.027.593a.12.12 0 0 1 .062.108v1.187a.12.12 0 0 1-.062.107l-1.027.593a.12.12 0 0 1-.124 0l-1.027-.593a.12.12 0 0 1-.063-.107v-1.187c0-.045.022-.085.062-.108z"
            fill="#689F63" />
        <g fill-rule="nonzero">
            <path
                d="M5.893.09.336 3.297A.67.67 0 0 0 0 3.88v6.42c0 .24.128.46.336.58l5.558 3.21a.67.67 0 0 0 .671 0l5.557-3.21a.67.67 0 0 0 .335-.58V3.88a.67.67 0 0 0-.336-.582L6.564.09a.68.68 0 0 0-.672 0"
                fill="url(#a)" transform="translate(21.5 31.5)" />
            <path
                d="M.138 10.706q.081.107.198.174l4.767 2.753.794.457a.67.67 0 0 0 .519.063l5.861-10.732a.7.7 0 0 0-.156-.124L8.482 1.196 6.56.089a.7.7 0 0 0-.175-.07z"
                fill="url(#b)" transform="translate(21.5 31.5)" />
            <path
                d="M6.162.004a.7.7 0 0 0-.269.086L.352 3.288l5.975 10.884a.7.7 0 0 0 .24-.082l5.556-3.21a.67.67 0 0 0 .325-.459L6.356.015a.7.7 0 0 0-.191-.011"
                fill="url(#c)" transform="translate(21.5 31.5)" />
        </g>
    </g>
</svg>